<svg width="145" height="145" viewBox="0 0 145 145" fill="none" xmlns="http://www.w3.org/2000/svg">
<g id="cloudy-night-2">
<g id="cloudy-night-2_2">
<g id="Group">
<g id="Group_2">
<g id="Group_3">
<path id="Vector" d="M87.2046 34.3041L88.4685 36.4707L90.635 37.554L88.4685 38.8178L87.2046 40.9844L86.1213 38.8178L83.9548 37.554L86.1213 36.4707L87.2046 34.3041Z" fill="#FFA500"/>
</g>
<g id="Group_4">
<path id="Vector_2" d="M123.314 52.3589L124.578 54.5255L126.745 55.6087L124.578 56.8726L123.314 59.0392L122.231 56.8726L120.064 55.6087L122.231 54.5255L123.314 52.3589Z" fill="#FFA500"/>
</g>
<g id="Group_5">
<path id="Vector_3" d="M107.426 55.4282C107.426 48.7479 111.037 42.9704 116.453 39.7205C113.745 38.0956 110.676 37.3734 107.426 37.3734C97.4959 37.3734 89.3712 45.4981 89.3712 55.4282C89.3712 65.3583 97.4959 73.483 107.426 73.483C110.676 73.483 113.745 72.5803 116.453 71.1359C111.037 68.0666 107.426 62.1085 107.426 55.4282Z" fill="#FFA500" stroke="#FFA500" stroke-width="1.6" stroke-linejoin="round"/>
</g>
</g>
<g id="Group_6">
<path id="Vector_4" d="M107.652 77.6356C107.652 67.2541 99.3014 59.1295 89.1455 59.1295C86.8887 59.1295 84.8575 59.5808 82.8264 60.2579C82.1493 52.5846 75.8301 46.2654 67.9312 46.2654C59.5808 46.2654 52.8103 53.036 52.8103 61.3863C52.8103 63.1918 53.2616 64.9973 53.713 66.5771C53.0359 66.3514 52.1332 66.3514 51.4562 66.3514C43.1058 66.3514 36.3353 73.1219 36.3353 81.4723C36.3353 89.5969 42.8801 96.3675 51.0048 96.5931H89.8226C99.7527 95.4647 107.652 87.5658 107.652 77.6356Z" fill="#91C0F8" stroke="white" stroke-width="1.2" stroke-linejoin="round"/>
</g>
</g>
</g>
</g>
</svg>
