<svg width="145" height="145" viewBox="0 0 145 145" fill="none" xmlns="http://www.w3.org/2000/svg">
<g id="cloudy">
<g id="cloudy_2">
<g id="Group">
<g id="Group_2">
<path id="Vector" d="M87.1595 52.4492C87.1595 46.2203 82.1493 41.3455 76.0558 41.3455C74.7017 41.3455 73.483 41.6163 72.2643 42.0225C71.8581 37.4186 68.0665 33.627 63.3272 33.627C58.317 33.627 54.2546 37.6894 54.2546 42.6996C54.2546 43.7829 54.5254 44.8662 54.7963 45.814C54.39 45.6786 53.8484 45.6786 53.4422 45.6786C48.432 45.6786 44.3696 49.7409 44.3696 54.7512C44.3696 59.6259 48.2965 63.6883 53.1713 63.8237H76.462C82.4201 63.1466 87.1595 58.4073 87.1595 52.4492Z" fill="#91C0F8" stroke="white" stroke-width="0.72" stroke-linejoin="round"/>
</g>
<g id="Group_3">
<path id="Vector_2" d="M107.652 77.6356C107.652 67.2541 99.3014 59.1294 89.1455 59.1294C86.8887 59.1294 84.8575 59.5808 82.8264 60.2579C82.1493 52.5846 75.8301 46.2654 67.9312 46.2654C59.5808 46.2654 52.8103 53.0359 52.8103 61.3863C52.8103 63.1918 53.2616 64.9972 53.713 66.577C53.0359 66.3514 52.1332 66.3514 51.4562 66.3514C43.1058 66.3514 36.3353 73.1219 36.3353 81.4722C36.3353 89.5969 42.8801 96.3674 51.0048 96.5931H89.8226C99.7527 95.4647 107.652 87.5657 107.652 77.6356Z" fill="#57A0EE" stroke="white" stroke-width="1.2" stroke-linejoin="round"/>
</g>
</g>
</g>
</g>
</svg>
