<svg width="145" height="145" viewBox="0 0 145 145" fill="none" xmlns="http://www.w3.org/2000/svg">
<g id="night">
<g id="night_2">
<g id="Group">
<g id="Group_2">
<path id="Vector" d="M52.5846 48.5223L54.1644 51.2305L56.8726 52.5846L54.1644 54.1644L52.5846 56.8726L51.2305 54.1644L48.5223 52.5846L51.2305 51.2305L52.5846 48.5223Z" fill="#FFA500"/>
</g>
<g id="Group_3">
<path id="Vector_2" d="M97.7216 71.0908L99.3014 73.799L102.01 75.1531L99.3014 76.7329L97.7216 79.4411L96.3675 76.7329L93.6592 75.1531L96.3675 73.799L97.7216 71.0908Z" fill="#FFA500"/>
</g>
<g id="Group_4">
<path id="Vector_3" d="M77.8613 74.9274C77.8613 66.5771 82.375 59.3551 89.1456 55.2928C85.7603 53.2616 81.9236 52.3589 77.8613 52.3589C65.4486 52.3589 55.2928 62.5147 55.2928 74.9274C55.2928 87.3401 65.4486 97.4959 77.8613 97.4959C81.9236 97.4959 85.7603 96.3675 89.1456 94.562C82.375 90.7253 77.8613 83.2777 77.8613 74.9274Z" fill="#FFA500" stroke="#FFA500" stroke-width="2" stroke-linejoin="round"/>
</g>
</g>
</g>
</g>
</svg>
