<svg width="145" height="145" viewBox="0 0 145 145" fill="none" xmlns="http://www.w3.org/2000/svg">
<g id="rainy-1">
<g id="rainy-1_2">
<g id="Group">
<g id="Group_2">
<g id="Group_3">
<g id="Group_4">
<path id="Vector" d="M45.137 83.0521V91.1767" stroke="#FFA500" stroke-width="2.4" stroke-linecap="round"/>
</g>
<g id="Group_5">
<path id="Vector_2" d="M27.902 75.9131L22.157 81.6581" stroke="#FFA500" stroke-width="2.4" stroke-linecap="round"/>
</g>
<g id="Group_6">
<path id="Vector_3" d="M20.763 58.6781H12.6384" stroke="#FFA500" stroke-width="2.4" stroke-linecap="round"/>
</g>
<g id="Group_7">
<path id="Vector_4" d="M27.902 41.4431L22.157 35.6981" stroke="#FFA500" stroke-width="2.4" stroke-linecap="round"/>
</g>
<g id="Group_8">
<path id="Vector_5" d="M45.137 34.3041V26.1794" stroke="#FFA500" stroke-width="2.4" stroke-linecap="round"/>
</g>
<g id="Group_9">
<path id="Vector_6" d="M62.372 41.4431L68.117 35.6981" stroke="#FFA500" stroke-width="2.4" stroke-linecap="round"/>
</g>
<g id="Group_10">
<path id="Vector_7" d="M69.511 58.6781H77.6356" stroke="#FFA500" stroke-width="2.4" stroke-linecap="round"/>
</g>
<g id="Group_11">
<path id="Vector_8" d="M62.372 75.9131L68.117 81.6581" stroke="#FFA500" stroke-width="2.4" stroke-linecap="round"/>
</g>
</g>
<path id="Vector_9" d="M45.137 72.2192C52.6155 72.2192 58.6781 66.1566 58.6781 58.6781C58.6781 51.1995 52.6155 45.137 45.137 45.137C37.6584 45.137 31.5959 51.1995 31.5959 58.6781C31.5959 66.1566 37.6584 72.2192 45.137 72.2192Z" fill="#FFA500" stroke="#FFA500" stroke-width="2.4"/>
</g>
<g id="Group_12">
<path id="Vector_10" d="M102.788 79.1928C102.788 70.3686 95.6904 63.4626 87.058 63.4626C85.1396 63.4626 83.4132 63.8463 81.6867 64.4218C81.1112 57.8995 75.7399 52.5282 69.0257 52.5282C61.9279 52.5282 56.173 58.2831 56.173 65.3809C56.173 66.9156 56.5566 68.4502 56.9403 69.7931C56.3648 69.6012 55.5975 69.6012 55.022 69.6012C47.9242 69.6012 42.1692 75.3562 42.1692 82.454C42.1692 89.3599 47.7324 95.1149 54.6383 95.3067H87.6335C96.0741 94.3476 102.788 87.6335 102.788 79.1928Z" fill="#57A0EE" stroke="white" stroke-width="1.275" stroke-linejoin="round"/>
</g>
</g>
<g id="Group_13">
<path id="Vector_11" d="M63.0056 103.686L59.8704 121.467" stroke="#91C0F8" stroke-width="2" stroke-linecap="round" stroke-dasharray="4 7"/>
<path id="Vector_12" d="M77.1248 101.593L73.9896 119.373" stroke="#91C0F8" stroke-width="2" stroke-linecap="round" stroke-dasharray="4 7"/>
</g>
</g>
</g>
</svg>
