<svg width="145" height="145" viewBox="0 0 145 145" fill="none" xmlns="http://www.w3.org/2000/svg">
<g id="rainy-7">
<g id="rainy-7_2">
<g id="Group">
<g id="Group_2">
<path id="Vector" d="M107.652 77.6356C107.652 67.2541 99.3014 59.1295 89.1455 59.1295C86.8887 59.1295 84.8575 59.5808 82.8264 60.2579C82.1493 52.5846 75.8301 46.2654 67.9312 46.2654C59.5808 46.2654 52.8103 53.036 52.8103 61.3863C52.8103 63.1918 53.2616 64.9973 53.713 66.5771C53.036 66.3514 52.1332 66.3514 51.4562 66.3514C43.1058 66.3514 36.3353 73.1219 36.3353 81.4723C36.3353 89.5969 42.8801 96.3675 51.0048 96.5931H89.8226C99.7527 95.4647 107.652 87.5658 107.652 77.6356Z" fill="#57A0EE" stroke="white" stroke-width="1.2" stroke-linejoin="round"/>
</g>
</g>
<g id="Group_3">
<path id="Vector_2" d="M58.4576 104.078L55.3224 121.859" stroke="#91C0F8" stroke-width="3" stroke-linecap="round" stroke-dasharray="0.1 7"/>
<path id="Vector_3" d="M70.3542 101.592L67.219 119.373" stroke="#91C0F8" stroke-width="3" stroke-linecap="round" stroke-dasharray="0.1 7"/>
<path id="Vector_4" d="M81.0751 105.775L77.94 123.555" stroke="#91C0F8" stroke-width="3" stroke-linecap="round" stroke-dasharray="0.1 7"/>
</g>
</g>
</g>
</svg>
