<svg width="145" height="145" viewBox="0 0 145 145" fill="none" xmlns="http://www.w3.org/2000/svg">
<g id="snowy-6">
<g id="snowy-6_2">
<g id="Group">
<g id="Group_2">
<path id="Vector" d="M107.652 77.6356C107.652 67.2541 99.3014 59.1295 89.1455 59.1295C86.8887 59.1295 84.8575 59.5808 82.8264 60.2579C82.1493 52.5846 75.8301 46.2654 67.9312 46.2654C59.5808 46.2654 52.8103 53.036 52.8103 61.3863C52.8103 63.1918 53.2616 64.9973 53.713 66.5771C53.036 66.3514 52.1332 66.3514 51.4562 66.3514C43.1058 66.3514 36.3353 73.1219 36.3353 81.4723C36.3353 89.5969 42.8801 96.3675 51.0048 96.5931H89.8226C99.7527 95.4647 107.652 87.5658 107.652 77.6356Z" fill="#57A0EE" stroke="white" stroke-width="1.2" stroke-linejoin="round"/>
</g>
<g id="Group_3">
<g id="Group_4">
<path id="Vector_2" d="M51.9075 100.43V111.714" stroke="#57A0EE" stroke-width="1.2" stroke-linecap="round"/>
<path id="Vector_3" d="M55.8971 102.082L47.918 110.062" stroke="#57A0EE" stroke-linecap="round"/>
<path id="Vector_4" d="M57.5497 106.072H46.2654" stroke="#57A0EE" stroke-linecap="round"/>
<path id="Vector_5" d="M55.8971 110.062L47.918 102.082" stroke="#57A0EE" stroke-linecap="round"/>
</g>
</g>
<g id="Group_5">
<g id="Group_6">
<path id="Vector_6" d="M69.9623 100.43V111.714" stroke="#57A0EE" stroke-width="1.2" stroke-linecap="round"/>
<path id="Vector_7" d="M73.9519 102.082L65.9727 110.062" stroke="#57A0EE" stroke-linecap="round"/>
<path id="Vector_8" d="M75.6045 106.072H64.3202" stroke="#57A0EE" stroke-linecap="round"/>
<path id="Vector_9" d="M73.9519 110.062L65.9727 102.082" stroke="#57A0EE" stroke-linecap="round"/>
</g>
</g>
<g id="Group_7">
<g id="Group_8">
<path id="Vector_10" d="M90.274 100.43V111.714" stroke="#57A0EE" stroke-width="1.2" stroke-linecap="round"/>
<path id="Vector_11" d="M94.2636 102.082L86.2844 110.062" stroke="#57A0EE" stroke-linecap="round"/>
<path id="Vector_12" d="M95.9161 106.072H84.6318" stroke="#57A0EE" stroke-linecap="round"/>
<path id="Vector_13" d="M94.2636 110.062L86.2844 102.082" stroke="#57A0EE" stroke-linecap="round"/>
</g>
</g>
</g>
</g>
</g>
</svg>
