<svg width="145" height="145" viewBox="0 0 145 145" fill="none" xmlns="http://www.w3.org/2000/svg">
<g id="thunder">
<g id="thunder_2">
<g id="Group">
<g id="Group_2">
<path id="Vector" d="M87.1595 56.9629C87.1595 50.734 82.1493 45.8592 76.0558 45.8592C74.7017 45.8592 73.483 46.13 72.2643 46.5362C71.8581 41.9323 68.0666 38.1407 63.3272 38.1407C58.317 38.1407 54.2547 42.2031 54.2547 47.2133C54.2547 48.2966 54.5255 49.3799 54.7963 50.3277C54.3901 50.1923 53.8484 50.1923 53.4422 50.1923C48.432 50.1923 44.3697 54.2546 44.3697 59.2649C44.3697 64.1396 48.2966 68.202 53.1714 68.3374H76.4621C82.4201 67.6603 87.1595 62.921 87.1595 56.9629Z" fill="#91C0F8" stroke="white" stroke-width="0.72" stroke-linejoin="round"/>
</g>
<g id="Group_3">
<path id="Vector_2" d="M107.652 77.6356C107.652 67.2541 99.3014 59.1295 89.1455 59.1295C86.8887 59.1295 84.8575 59.5808 82.8264 60.2579C82.1493 52.5846 75.8301 46.2654 67.9312 46.2654C59.5808 46.2654 52.8103 53.036 52.8103 61.3863C52.8103 63.1918 53.2616 64.9973 53.713 66.5771C53.0359 66.3514 52.1332 66.3514 51.4562 66.3514C43.1058 66.3514 36.3353 73.1219 36.3353 81.4723C36.3353 89.5969 42.8801 96.3675 51.0048 96.5931H89.8226C99.7527 95.4647 107.652 87.5658 107.652 77.6356Z" fill="#57A0EE" stroke="white" stroke-width="1.2" stroke-linejoin="round"/>
</g>
<g id="Group_4">
<path id="Vector_3" d="M63.5529 77.9064H80.3438L69.2401 97.4056H79.8022L55.9699 125.3L65.1778 104.447H54.8866L63.5529 77.9064Z" fill="#FFA500" stroke="white" stroke-width="1.2"/>
</g>
</g>
</g>
</g>
</svg>
